<svg id="图层_1" enable-background="new 0 0 156 156" height="512" viewBox="0 0 156 156" width="512" xmlns="http://www.w3.org/2000/svg"><g><g fill="rgb(0,0,0)"><path d="m26.66 106.53c.02.92.72 1.54 1.6 1.6.13.01.27.02.41.03 2.08 3.04 4.37 5.92 6.7 8.79 1.49 1.84 8.95 1.3 11.17 1.44 5.9.37 11.9.58 17.81.13 2.49-.19 5.34.03 7.25-1.78.38-.36.03-1.04-.47-.95-.5-6.3-.34-12.69.06-19 .11-1.7.1-3.72.27-5.72.04-.11.05-.23.03-.35.21-2.25.66-4.45 1.79-6.09 1.41-2.04 2.88-2.94 4.31-3.09.21.12.42.23.64.35.47.26.93.15 1.24-.13 3.9 1.33 7.01 7.58 6.74 10.42-.01.07.01.14.02.21-2.49.43-5.66.2-7.72.65-1.33.29-1.69 2-.87 2.96-.6 6.87-.39 10.76 4.83 15.89 5.71 5.62 11.88 11.64 18.89 15.71v.62c-.02 1.09 1.36 1.63 2.12.88 6.2-6.21 12.76-12.33 18.33-19.11 4.15-5.05 5.93-12.37 7.05-18.76.22-.29.44-.56.66-.85.74-1-.26-2.43-1.39-2.41-2.69.04-5.37.12-8.06.21-1.5.05-1.46 2.16 0 2.3 1.67.16 3.34.29 5.01.44-6.16 7.9-13.41 15.39-21.7 20.97-2.39 1.61-11.51-7.64-13.46-9.34-2.44-2.12-4.8-4.32-7.12-6.57 2.5-.37 4.99-.51 7.59-.37.73.04 1.37-.53 1.57-1.19 1.94-6.55 2.93-13.25-1.17-19.16-2.81-4.05-9.13-5.58-13.72-4.43-15.84 3.94-15.94 21.64-14.54 34.88-10.77-.37-21.61-1.01-32.39-.79-.09-.13-.17-.25-.26-.38-.05-.08-.11-.14-.17-.21-1.18-15.7-1.42-32.41 3.45-47.47 4.97-15.39 18.61-25.64 34.89-26.56 14.81-.84 29.8 5.15 38.58 17.48 9.12 12.81 9.21 27.25 7.88 42.35-.15 1.75 2.56 1.73 2.72 0 1.61-16.73.81-33.59-10.81-46.84-9.64-10.99-23.51-17.77-38.36-16.58-14.85 1.16-30.96 8.54-36.56 23.32-6.85 18.12-5.15 37.55-4.84 56.5zm92.16-3.73c2.62-2.65 5.12-5.42 7.5-8.34-1.22 3.74-2.54 7.34-4.48 10.69-.93-.85-1.97-1.64-3.02-2.35zm-.21 6.9c-1.25-1.05-2.87-1.8-4.4-2.29-.07-.02-.13-.02-.19-.03 1.19-1.08 2.36-2.18 3.51-3.31 1.04.95 2.18 1.86 3.34 2.61-.68 1.04-1.43 2.05-2.26 3.02zm-3.7 3.67c-1.52-.97-3.02-1.98-4.65-2.74 1.01-.86 2.03-1.7 3.02-2.58-.03.29.07.6.33.8 1.13.85 2.5 1.65 3.89 2.09-.82.85-1.64 1.7-2.46 2.55-.05-.05-.08-.09-.13-.12zm-4.54 4.94c-1.66-1.36-3.38-2.52-5.3-3.48 1.3-1 2.58-2.02 3.84-3.05 1.52 1.17 3.2 2.06 4.88 2.98-1.14 1.18-2.27 2.37-3.42 3.55zm-7.55-1.99c.22-.03.42-.09.58-.21.21-.16.42-.32.63-.49 1.82 1.17 3.64 2.39 5.38 3.69-1.88 1.95-3.77 3.9-5.64 5.87-.1-2.98-.39-5.93-.95-8.86zm-1.85-.37c.07 1.3.14 2.6.2 3.9-1.23-2.47-2.77-4.92-4.55-7.2 1.44 1.05 2.9 2.07 4.39 3.05-.03.08-.05.16-.04.25zm-22.01-18.58c2.63 2.63 5.35 5.2 8.15 7.66-.2.32-.24.77.06 1.12 4.39 4.99 8.98 9.67 13.21 14.81.26.32.62.23.83-.01.05 1.29.1 2.58.12 3.87-4.33-4.05-9.18-7.64-13.6-11.55-2.35-2.07-4.81-4.07-7.07-6.23-1.98-1.88-1.8-6.2-1.7-9.67zm-10.05 14.88c-.99-1.76-2-3.51-3.06-5.22-.13-1.02-.26-2.13-.38-3.31.73.73 1.4 1.53 1.92 2.42.29.49.77.62 1.2.53.1 1.85.2 3.71.32 5.58zm-3.82-16.6c.46.79.99 1.52 1.55 2.26.56.73 1.42.49 1.75-.05-.01 1.94.03 3.86.09 5.79-.86-1.03-1.91-1.84-3.21-2.38-.12-1.8-.2-3.69-.18-5.62zm22.06-10.17.21.18c.99.94 1.92 1.94 2.81 2.97-.08.41-.16.83-.27 1.24-.28 1.05-1.05 1.69-2.07 2.1.67-1.93.32-4.28-.68-6.49zm-15.05-9.15c-.08-.03-.16-.04-.23-.04 1.59-1.19 3.51-2.03 5.86-2.39 1.3.96 2.62 1.88 3.98 2.78 1.92 1.27 3.81 2.73 5.95 3.59.63.25 1.01-.64.62-1.06-1.56-1.7-3.67-2.96-5.53-4.31-.53-.38-1.05-.74-1.58-1.11 6.3.62 9.55 6.01 9.3 12.23-1.66-2.3-3.78-4.53-6.33-5.37-.21-.07-.39-.06-.54.01-2.09-1.85-4.65-2.87-7.11-2.25-1.42-.78-2.86-1.48-4.39-2.08zm-3.45 3.85c-.06-.01-.12 0-.18-.01.76-1.27 1.65-2.42 2.75-3.37-.08.32 0 .71.29.94.85.65 1.72 1.23 2.61 1.79-.95.66-1.72 1.41-2.38 2.22-.87-.76-1.87-1.34-3.09-1.57zm1.78 3.58c-.71 1.37-1.15 2.88-1.44 4.48-.61-.53-1.23-.95-1.96-1.36-.55-.31-1.37.36-.93.93.55.72 1.06 1.34 1.76 1.92.27.23.55.46.82.68-.05.48-.1.96-.13 1.46-.1 1.69-.15 3.38-.17 5.05-.05-.09-.08-.17-.16-.26-.8-.88-1.58-1.71-2.54-2.44-.2-.15-.41-.15-.58-.06.15-4.49.85-9.02 2.62-12.69.06.09.14.18.24.26.86.65 1.71 1.3 2.47 2.03zm-2.55 31.33c-2.32-2.15-4.65-4.24-7.11-6.18 1.17.01 2.35.01 3.52.03.19 0 .39-.04.58-.12 1.3 2.49 2.69 4.94 4.05 7.4-.31.03-.64.05-.96.06.28-.32.35-.79-.08-1.19zm-7.09.86c-2.54-2.34-5.33-5.02-8.36-7.09 1.82.01 3.64.02 5.46.03 2.66 2.66 5.53 5.06 8.47 7.42-1.88-.04-3.86-.25-5.57-.36zm-28.25-7.55c3.17.17 6.34.27 9.52.33 2.3 2.26 4.89 4.26 7.34 6.33.78.66 1.92-.46 1.13-1.13-1.99-1.7-3.94-3.5-5.99-5.16 1.6.02 3.2.04 4.8.05 3.06 2.56 6.67 4.67 9.87 7.05-3.39-.05-6.77-.16-10.15-.35-4.66-.27-11.02.5-14.17-3.79-.79-1.09-1.57-2.21-2.35-3.33z"/><path d="m37.82 108.74c1.77 1.34 3.55 2.69 5.32 4.03 1.26.96-.16 2.77-1.32 1.71l-4.94-4.53c-.63-.58.24-1.74.94-1.21z"/><path d="m81.5 100.87c3.26 4.4 6.36 8.84 9.12 13.57.28.48-.43 1.06-.78.6-3.39-4.36-6.41-8.91-9.3-13.61-.39-.63.54-1.13.96-.56z"/><path d="m90.4 84.45v.43c0 .06-.09.06-.09 0v-.43c0-.05.09-.05.09 0z"/></g></g></svg>