<svg id="图层_1" enable-background="new 0 0 156 156" height="512" viewBox="0 0 156 156" width="512" xmlns="http://www.w3.org/2000/svg"><g><g fill="rgb(0,0,0)"><path d="m126.55 84.78c1.55-3.05 2.47-6.5 3.51-9.72.45-1.39 1.91-4.02 1.57-5.76.12-.11.23-.23.35-.34.62-.62.7-1.76-.14-2.26-18.41-10.84-37.27-21.08-57.16-28.96-1.29-.51-2.44.79-2.26 2.01.62 4.29 1.24 8.59 1.86 12.88-11.41.01-22.78-.66-34.13-1.98-2.18-.25-2.38 3.15-.2 3.4 12.03 1.39 24.08 2.03 36.2 2 1.14 0 1.93-.91 1.77-2.04-.55-3.93-1.09-7.87-1.64-11.8 18.02 7.6 35.68 15.81 52.44 25.94-10.97 10.51-21.82 21.13-32.7 31.74-1.7-3.25-3.32-6.78-5.67-9.47-1.46-1.68-6.23.08-7.75.32-12.8 2-25.59 4.05-38.38 6.09-3.96-15.61-6.29-31.68-7.87-47.68-.09-.94-1.71-.83-1.65.12.04.62.09 1.23.13 1.84-.29-.11-.63-.06-.88.29-2.85 3.93-4.09 8.74-5.71 13.27-1.85 5.17-4.54 10.47-4.69 16.02-.13 4.83 2.03 10.52 3.02 15.24 1.44 6.89 2.89 13.77 4.33 20.66.3 1.45 2.36 1.96 3.17.63.19-.31.37-.62.56-.93 7.21-.63 14.41-1.37 21.6-2.24 7.06-.86 14.81-1.21 21.61-3.44 1.24 1.21 2.47 2.42 3.73 3.61 1.57 1.48 3.04 3.42 5.13 4.11.94.31 1.82-.7 1.38-1.59-.73-1.47-2.04-2.39-3.32-3.37 1.39-.29 2.74-.74 4.1-1.13.94-.27.67-1.6-.3-1.48-1.93.23-3.89.35-5.75.91-.05.02-.08.05-.13.07-.58-.46-1.16-.93-1.75-1.39.05-.04.11-.08.15-.14.69-.89 1.23-1.84 1.72-2.81 3.42-.77 6.82-1.59 10.21-2.5-.49 1.09-.95 2.19-1.42 3.3-1.13 2.67-2.74 5.53-2.71 8.47.01 1.01 1.15 1.32 1.77.59.09-.11.17-.23.26-.35.11 0 .22-.02.33-.1 12.96-8.41 23.3-19.91 35.44-29.45 1.01-.79.67-1.98-.13-2.58zm-91.58-31.87c.29 3.97.67 7.92 1.11 11.85-1.05.07-2.08.22-3.13.47-.78.19-1.63.36-2.44.6 1.32-4.34 2.54-8.83 4.46-12.92zm-6.25 36.56c3.26-.57 6.47-1.18 9.66-2.13.82-.24.59-1.38-.26-1.29-3.32.35-6.52 1.04-9.76 1.77-.21-.96-.41-1.93-.62-2.89-.21-.93-.34-1.84-.42-2.71.19.22.48.35.86.26 3.04-.74 6.16-1.1 9.18-1.92.75-.2.74-1.36-.1-1.4-3.21-.14-6.37.63-9.46 1.43-.26.07-.44.22-.56.4-.06-1.92.13-3.74.5-5.55 2.48-.77 5.05-1.21 7.59-1.71.76-.15.67-1.29-.09-1.34-2.47-.15-4.79.36-7.07 1.19.46-1.79 1.04-3.61 1.66-5.55 0-.01.01-.02.01-.03 1.18-.01 2.42-.31 3.56-.53 1.01-.19 1.96-.46 2.9-.8 1.1 9.37 2.57 18.68 4.23 28-.08-.22-.27-.41-.58-.45-3.47-.51-6.74-.22-10.06.73-.39-1.83-.77-3.66-1.17-5.48zm2.89 13.58c2.05-.17 4.09-.37 6.16-.69.75-.12.68-1.35-.09-1.34-2.16.05-4.28.21-6.4.42-.32-1.52-.64-3.03-.97-4.55 3.1-.82 6.37-1.27 9.57-1.31.46-.01.7-.34.7-.67.2 1.1.38 2.19.58 3.29-2.47 4.59-4.93 9.13-7.69 13.53-.62-2.89-1.24-5.78-1.86-8.68zm47.84 6.13c-.07-.51-.43-1-1-1.01-.1 0-.19.01-.29.01-.09-.07-.17-.13-.26-.2-.45-.35-.98-.14-1.28.24-6.14.25-12.37 1.91-18.42 2.81-7.34 1.09-14.7 1.98-22.07 2.77 2.59-4.35 5.05-8.78 7.1-13.42.02 0 .05.01.07 0l26.61-4.44c4.43-.74 8.86-1.51 13.3-2.26 1.41-.24 2.59-.19 3.6.06-2.82 4.81-6.24 10.12-7.29 15.49zm9.4-14.51c1.72 1.2 2.84 3.2 3.98 5.39-.07-.02-.15-.03-.24 0-1.27.44-2.57.76-3.89 1-1.06.19-2.2.24-3.23.56 1.08-2.33 2.21-4.65 3.38-6.95zm-5.24 11.06c.32-.73.64-1.47.98-2.22.2-.44.41-.87.61-1.3.04.04.08.08.14.09 2.43.46 5.34-.67 7.57-1.57.09-.04.15-.1.18-.16.34.65.67 1.31 1.03 1.98-.21.42-.4.86-.6 1.29-3.33.54-6.62 1.2-9.91 1.89zm19.77-1.26c-.17-.37-.54-.67-1.01-.57-2.13.43-4.22.85-6.29 1.52-1.52.49-1.1 2.93.5 2.49 1.72-.47 3.36-1.07 5-1.71-2.93 2.75-5.94 5.4-9.16 7.85.48-1.27.84-2.6 1.26-3.87.72-2.14 1.5-4.26 2.14-6.42.28-.02.56-.12.8-.35 1.01-.98 2.01-1.95 3.02-2.93.09.54.53 1 1.23.84 2.64-.62 5.21-1.41 7.8-2.21.93-.29.69-1.69-.3-1.51-2.43.44-4.85.89-7.25 1.46 1.3-1.26 2.6-2.52 3.9-3.78.15.12.35.17.6.11 3.35-.89 6.68-1.77 9.95-2.84-4.15 3.91-8.1 7.99-12.19 11.92zm14.5-14.09c-3.71.79-7.31 1.88-10.93 3.01 7.52-7.29 15.03-14.58 22.49-21.93-.06.16-.12.32-.18.48-.61 1.71-1.26 3.4-1.92 5.09-.72 1.84-1.54 3.65-2.24 5.51-3.23.64-6.34 1.57-9.44 2.75-.51.19-.13.92.37.75 2.86-.98 5.79-1.79 8.74-2.52-.15.46-.31.91-.44 1.38-2.24 1.74-4.38 3.58-6.45 5.48z"/><path d="m61.59 97.86c-6.7 1.01-13.42 4.1-19.52 6.94-.72.33-.18 1.41.54 1.1 6.31-2.8 12.95-4.48 19.33-7.01.6-.25.23-1.12-.35-1.03z"/><path d="m77.59 95.26c-10.99 2.95-21.52 8.36-31.99 12.76-1.1.46-.28 2.06.8 1.65 10.53-4.04 21.82-7.4 31.72-12.84.8-.44.42-1.83-.53-1.57z"/><path d="m81.35 99.38c-4.39.76-8.37 2.71-12.18 4.97-1.34.8-.3 2.97 1.07 2.19 3.76-2.13 7.75-3.75 11.6-5.68.83-.41.39-1.63-.49-1.48z"/></g></g></svg>